# xmcd CD database file
#
# Track frame offsets:
#	150
#	27291
#	51068
#	65817
#	97378
#	118389
#	134936
#	163569
#	179998
#	199320
#	255319
#	277103
#
# Disc length: 4069 seconds
#
# Revision: 0
# Processed by: cddbd v1.5PL3 Copyright (c) Steve Scherf et al.
# Submitted via: CDex 1.50Beta5
#
DISCID=cc0fe30c
DTITLE=AA.VV. - New Age n.100 Rhythm of Future
DYEAR=1900
DGENRE=New Age
TTITLE0=Solis Strinq Quartet - Fotogrammi
TTITLE1=Gianni Guarracino - Late at sunset
TTITLE2=Universal Funk - Sun
TTITLE3=Masala - The pink flood
TTITLE4=Simon Cooper - Diamond ring
TTITLE5=Beth Hirsch - Let it live (Beatless)
TTITLE6=Deuter  - Blessing
TTITLE7=Roberto Speranzini - Elena
TTITLE8=Mo'Horizons - Soho Vibes
TTITLE9=Cybertribe - Seaside traveling
TTITLE10=Ettore Fioravanti Belcanto - Suite Pinocchio: intro-Pinocchio-coda
TTITLE11=Don Carlos - Inspiration
EXTD=
EXTT0=
EXTT1=
EXTT2=
EXTT3=
EXTT4=
EXTT5=
EXTT6=
EXTT7=
EXTT8=
EXTT9=
EXTT10=
EXTT11=
PLAYORDER=
